<svg version="1.1" xmlns="http://www.w3.org/2000/svg" xmlns:xlink="http://www.w3.org/1999/xlink" x="0px" y="0px" width="480px"
	 height="70px" viewBox="0 0 480 70" enable-background="new 0 0 480 70" xml:space="preserve">
<g id="icon">
	<g id="g3344" transform="matrix(1.25,0,0,-1.25,-525.04258,410.40309)">
		<g id="g3791" transform="matrix(0.98309624,0,0,0.98309624,7.1001533,4.359127)">
			<g id="g3522" transform="translate(429.5898,322.1113)">
				<path id="path3524" fill="#5A5A5A" d="M76.527-1.744c0,0-1.234-6.472,0.688-11.224c1.924-4.751,3.333-6.544,3.333-6.544
					l2.166,1.335l1.581,0.956c0,0-3.099,4.658-3.906,6.051C77.114-5.51,76.527-1.744,76.527-1.744"/>
			</g>
			<g id="g3526" transform="translate(451.3008,265.9707)">
				<path id="path3528" fill="#5A5A5A" d="M69.58,16.221c0,0,1.236,6.473-0.688,11.221c-1.924,4.752-3.216,6.503-3.216,6.503
					l-3.839-2.388c0,0,3.075-4.518,3.882-5.911C68.994,19.986,69.58,16.221,69.58,16.221"/>
			</g>
			<g id="g3530" transform="translate(420.5488,274.4482)">
				<path id="path3532" fill="#919090" d="M79.421,13.509c0,0,1.236,5.285,4.251,8.615c3.294,3.637,6.77,5.618,8.463,6.647
					c1.693,1.032,6.26,3.933,7.857,5.116c4.679,3.47,6.338,6.45,6.338,6.45s-0.784-4.337-3.232-7.573
					c-2.533-3.348-6.065-6.066-9.187-7.929c-2.715-1.62-6.977-4.423-8.338-5.404C81.49,16.486,79.421,13.509,79.421,13.509"/>
			</g>
			<g id="g3534" transform="translate(440.3535,318.7617)">
				<path id="path3536" fill="#D3691B" d="M73.084-0.671c-0.362-1.07-1.522-1.645-2.592-1.283c-1.071,0.361-1.646,1.521-1.284,2.59
					c0.362,1.07,1.521,1.645,2.59,1.283C72.868,1.559,73.443,0.4,73.084-0.671"/>
			</g>
			<g id="g3538" transform="translate(458.6611,327.7026)">
				<path id="path3540" fill="#5A5A5A" d="M67.225-3.533c0,0,0.004-2.062-1.976-2.833C64.35-6.717,55.646-8.62,55.646-8.62
					s8.955,1.44,10.102,0.233c0.96-1.01,0.19-2.993-0.379-3.863c-0.788-1.2-2.028-1.914-3.362-2.405
					c-0.291-0.107-0.811-0.195-1.448-0.268c0.008-0.227-0.011-0.457-0.062-0.687c0.554-0.108,0.953-0.248,1.064-0.429
					c0.912-1.486-4.422-5.671-4.422-5.671s8.185,4.979,10.595,10.017C70.006-6.94,67.225-3.533,67.225-3.533"/>
			</g>
			<g id="g3542" transform="translate(436.1836,311.1279)">
				<path id="path3544" fill="#FDBA4D" d="M74.417,1.771c0.192,0.575,0.817,0.883,1.391,0.691c0.575-0.195,0.883-0.819,0.689-1.392
					c-0.195-0.577-0.817-0.884-1.392-0.691C74.532,0.572,74.224,1.197,74.417,1.771"/>
			</g>
			<g id="g3546" transform="translate(440.0723,269.7061)">
				<path id="path3548" fill="#99BD3C" d="M73.173,15.026c0.36,1.07,1.521,1.647,2.591,1.283c1.07-0.36,1.645-1.522,1.284-2.591
					c-0.362-1.07-1.521-1.643-2.591-1.283C73.387,12.798,72.813,13.956,73.173,15.026"/>
			</g>
			<g id="g3550" transform="translate(424.2998,268.124)">
				<path id="path3552" fill="#5A5A5A" d="M78.221,15.534c-0.919,1.047-0.068,2.998,0.538,3.844
					c0.834,1.167,2.105,1.827,3.459,2.264c0.281,0.09,0.775,0.164,1.375,0.223c-0.034,0.242-0.039,0.486-0.008,0.733
					c-0.452,0.111-0.772,0.245-0.865,0.41c-0.85,1.521,4.654,5.482,4.654,5.482s-8.384-4.638-11-9.571
					c-2.468-4.657,0.171-8.175,0.171-8.175s0.081,2.06,2.09,2.749c0.914,0.315,9.687,1.856,9.687,1.856S79.316,14.279,78.221,15.534
					"/>
			</g>
			<g id="g3554" transform="translate(444.6406,277.2402)">
				<path id="path3556" fill="#D3691B" d="M71.712,12.616c-0.194-0.576-0.818-0.884-1.391-0.691
					c-0.575,0.195-0.884,0.817-0.692,1.392c0.196,0.575,0.819,0.884,1.392,0.69C71.597,13.813,71.906,13.19,71.712,12.616"/>
			</g>
			<g id="g3558" transform="translate(428.1465,317.4287)">
				<path id="path3560" fill="#919090" d="M76.99-0.245c0,0-0.878,4.219,0.626,6.469c0.993,1.486,2.432,1.763,2.432,1.763
					s-1.061-0.973-2.108-3.234C76.841,2.383,76.99-0.245,76.99-0.245"/>
			</g>
			<g id="g3562" transform="translate(452.6416,269.8672)">
				<path id="path3564" fill="#919090" d="M69.15,14.976c0,0,0.772-4.24-0.788-6.454c-1.03-1.459-2.477-1.7-2.477-1.7
					s1.085,0.945,2.189,3.179C69.233,12.343,69.15,14.976,69.15,14.976"/>
			</g>
			<g id="g3566" transform="translate(440.0527,276.707)">
				<path id="path3568" fill="#648CAA" d="M73.179,12.786c-0.486-1.442-2.051-2.216-3.493-1.73c-1.442,0.487-2.218,2.05-1.73,3.495
					c0.486,1.442,2.051,2.216,3.493,1.729C72.89,15.795,73.667,14.23,73.179,12.786"/>
			</g>
			<g id="g3570" transform="translate(427.7402,268.1152)">
				<path id="path3572" fill="#FDBA4D" d="M77.119,15.535c0.418,1.242,1.763,1.91,3.006,1.488c1.241-0.417,1.908-1.762,1.489-3.003
					c-0.418-1.241-1.764-1.91-3.007-1.488C77.368,12.949,76.701,14.294,77.119,15.535"/>
			</g>
			<g id="g3574" transform="translate(452.6719,320.6343)">
				<path id="path3576" fill="#648CAA" d="M69.141-1.271c-0.419-1.24-1.765-1.908-3.005-1.488c-1.242,0.418-1.909,1.765-1.489,3.006
					c0.417,1.241,1.762,1.906,3.005,1.489C68.893,1.317,69.559-0.03,69.141-1.271"/>
			</g>
			<g id="g3578" transform="translate(441.1953,312.0776)">
				<path id="path3580" fill="#99BD3C" d="M72.813,1.468c0.473,1.401,1.992,2.152,3.394,1.682c1.4-0.474,2.152-1.992,1.68-3.394
					c-0.471-1.401-1.991-2.154-3.392-1.68C73.094-1.453,72.341,0.065,72.813,1.468"/>
			</g>
		</g>
	</g>
</g>
<g id="JGI">
	<g>
		<rect x="29.009" y="15.499" fill="none" width="76" height="36.5"/>
		<path fill="#5A5A5A" d="M42.759,17.297h7.2l-4.25,22.251c-1.65,8.551-5.3,12.001-12.951,12.001c-2.1,0-4.45-0.35-5.55-0.8
			l1.4-6.15c1.05,0.35,2.399,0.6,4,0.6c3.15,0,5.15-1.55,6.101-6.55L42.759,17.297z"/>
		<path fill="#5A5A5A" d="M75.209,49.449c-2.55,0.85-6.65,1.899-10.9,1.899c-4.601,0-8.451-1.199-11.201-3.7
			c-2.7-2.35-4.25-6.1-4.25-10.4c0-6.3,2.55-11.75,6.851-15.401c3.8-3.15,9.051-4.9,14.9-4.9c4.351,0,7.601,0.85,8.901,1.5
			l-2.15,6.05c-1.5-0.7-4.15-1.35-7.15-1.35c-3.351,0-6.301,0.95-8.551,2.7c-2.95,2.3-4.9,6.3-4.9,10.9
			c0,5.65,3.351,8.501,8.65,8.501c1.7,0,2.851-0.25,3.7-0.601l1.351-7.101h-5.251l1.15-5.75h12.251L75.209,49.449z"/>
		<path fill="#5A5A5A" d="M92.008,17.297l-6.4,33.702h-7.201l6.4-33.702H92.008z"/>
	</g>
</g>
<g id="green_stripe">
	<polyline fill="#629C42" points="-0.333,14.333 22.001,14.333 13.667,51 0.001,51.334 	"/>
	<polyline fill="#629C42" points="155,15 479.5,15 471,51.5 147.25,51.75 	"/>
</g>
<g id="Layer_7" display="none">
	<g display="inline">
	</g>
</g>
<g id="Layer_8" display="none">
	<path display="inline" fill="#FFFFFF" d="M325,46.416"/>
	<g display="inline">
		<path fill="#FFFFFF" d="M294.75,39.297c1.714-0.75,5.294,0.152,6.26-0.549c0.478-0.347,1.556-1.088,1.667-1.667
			c0.12-0.623-0.9-1.707-1-2.334c-0.146-0.908-0.136-4.604,1.667-7c0.765-1.016,2.172-3.161,2.666-4.333
			c0.533-1.267,1.066-5.457,1.281-5.615c0.469-0.344,2.744,2.096,3.386,2.948c0.651,0.865,1.591,2.576,1.989,3.583
			c0.262,0.662,0.598,2.376,0.678,3.083c0.143,1.253-0.275,3.801-0.667,5c-0.325,0.993-1.265,2.926-2,3.667
			c-0.244,0.246-0.958,0.801-1.261,0.969c-0.447,0.248-1.256,0.53-1.739,0.698c-0.479,0.167-1.499,0.256-2,0.333
			c-0.582,0.09-1.701-0.019-2.073,0.438c-0.365,0.448-2.124,1.44-1.906,1.875c0.062,0.125,3.102-0.364,3.938-0.406
			c0.666-0.033,2.073-0.038,2.709-0.239c0.484-0.153,1.321-0.792,1.666-1.167c0.379-0.412,2.037-3.223,2.375-3.625
			c0.292-0.347,2.388-3.061,4.875-4.062c1.699-0.685,3.991-1.06,5.574-1.56c0.533-0.168,1.737-1.003,2.238-1.253
			c0.532-0.265,1.535-1.462,2.062-1.188c0.473,0.247-0.141,3.571-0.188,4.062c-0.04,0.42-0.264,2.491-0.375,2.75
			c-0.216,0.5-0.723,2.405-3.062,4.812c-3.041,3.128-5.527,3.682-6.008,3.856c-2.416,0.878-4.595,0.31-5.292,0.125
			c-0.398-0.105-1.1-0.327-1.45-0.544c-1.666-1.028-3.984-0.555-4.469-0.531c-0.735,0.035-2.171,0.332-2.906,0.344
			c-2.854,0.044-5.387-0.821-6.968-0.187c-0.729,0.293-1.448,0.652-1.448,0.652l-3.021-1.997
			C291.947,40.237,294.5,39.406,294.75,39.297z"/>
		<polyline fill="none" stroke="#5A5A5A" stroke-miterlimit="10" points="303.875,36.922 306.734,32.984 308.906,25.688
			307.875,19.406 		"/>
	</g>
</g>
<g id="Layer_9" display="none">
</g>
<g id="phytozome">
	<g id="Phytozome">
		<path fill="#FFFFFF" d="M165.521,24.471c1.232-0.308,3.108-0.476,4.928-0.476c1.708,0,3.641,0.28,5.013,1.232
			c1.287,0.868,2.044,2.212,2.044,4.032c0,2.352-1.093,4.172-2.549,5.292c-1.54,1.204-3.752,1.764-6.048,1.764
			c-0.672,0-1.231-0.084-1.651-0.111l-1.288,6.804h-3.948L165.521,24.471z M167.873,32.899c0.421,0.084,0.868,0.14,1.568,0.14
			c2.408,0,4.004-1.54,4.004-3.444c0-1.792-1.315-2.38-2.855-2.38c-0.757,0-1.316,0.056-1.652,0.112L167.873,32.899z"/>
		<path fill="#FFFFFF" d="M177.925,43.007l3.78-19.88h4.032l-1.54,7.952h0.056c1.148-1.26,2.576-2.072,4.368-2.072
			c2.128,0,3.444,1.344,3.444,3.696c0,0.644-0.112,1.68-0.252,2.464l-1.484,7.84h-4.032l1.429-7.504
			c0.111-0.532,0.168-1.12,0.168-1.68c0-0.924-0.364-1.568-1.372-1.568c-1.429,0-2.856,1.736-3.36,4.479l-1.204,6.272H177.925z"/>
		<path fill="#FFFFFF" d="M198.085,29.315l0.84,5.964c0.196,1.428,0.336,2.409,0.448,3.276h0.057
			c0.308-0.84,0.615-1.708,1.203-3.192l2.492-6.048h4.256l-4.899,9.856c-1.82,3.64-3.444,6.104-5.265,7.812
			c-1.596,1.513-3.5,2.212-4.396,2.353l-0.896-3.472c0.645-0.196,1.54-0.532,2.324-1.064c0.924-0.645,1.708-1.456,2.24-2.38
			c0.112-0.224,0.112-0.392,0.056-0.672l-2.688-12.432H198.085z"/>
		<path fill="#FFFFFF" d="M215.053,25.591l-0.699,3.696h2.939l-0.616,3.08h-2.911l-0.925,4.648
			c-0.111,0.532-0.224,1.261-0.224,1.736c0,0.672,0.28,1.147,1.176,1.147c0.336,0,0.756,0,1.092-0.056l-0.447,3.164
			c-0.532,0.196-1.54,0.308-2.38,0.308c-2.437,0-3.584-1.231-3.584-2.968c0-0.728,0.084-1.483,0.308-2.548l1.036-5.432h-1.736
			l0.561-3.08h1.764l0.504-2.576L215.053,25.591z"/>
		<path fill="#FFFFFF" d="M231.937,34.635c0,5.012-3.444,8.68-8.176,8.68c-3.472,0-5.796-2.268-5.796-5.684
			c0-4.732,3.304-8.652,8.176-8.652C229.809,28.979,231.937,31.499,231.937,34.635z M222.137,37.574c0,1.597,0.784,2.66,2.212,2.66
			c2.156,0,3.416-3.248,3.416-5.571c0-1.26-0.561-2.604-2.156-2.604C223.285,32.059,222.137,35.447,222.137,37.574z"/>
		<path fill="#FFFFFF" d="M231.796,40.57l4.452-4.759c1.148-1.204,2.016-2.044,3.332-3.164l0.028-0.056h-5.853l0.645-3.276h10.695
			l-0.476,2.548l-4.34,4.648c-1.232,1.288-2.101,2.156-3.332,3.164l-0.028,0.056h6.44l-0.645,3.276h-11.367L231.796,40.57z"/>
		<path fill="#FFFFFF" d="M259.907,34.635c0,5.012-3.443,8.68-8.176,8.68c-3.472,0-5.796-2.268-5.796-5.684
			c0-4.732,3.304-8.652,8.176-8.652C257.779,28.979,259.907,31.499,259.907,34.635z M250.107,37.574c0,1.597,0.784,2.66,2.212,2.66
			c2.156,0,3.416-3.248,3.416-5.571c0-1.26-0.56-2.604-2.155-2.604C251.256,32.059,250.107,35.447,250.107,37.574z"/>
		<path fill="#FFFFFF" d="M260.971,43.007l1.708-9.24c0.308-1.736,0.531-3.22,0.7-4.452h3.443l-0.252,2.212h0.056
			c1.261-1.764,2.94-2.548,4.704-2.548c2.185,0,3.137,1.4,3.248,2.604c1.232-1.764,2.94-2.604,4.732-2.604
			c2.1,0,3.332,1.372,3.332,3.696c0,0.56-0.112,1.652-0.225,2.352l-1.483,7.98h-3.92l1.372-7.504
			c0.111-0.532,0.195-1.12,0.195-1.652c0-0.952-0.42-1.624-1.344-1.624c-1.344,0-2.688,1.792-3.22,4.564l-1.148,6.216h-3.892
			l1.428-7.532c0.084-0.56,0.168-1.092,0.168-1.568c0-0.952-0.308-1.68-1.288-1.68c-1.372,0-2.828,1.904-3.304,4.62l-1.12,6.16
			H260.971z"/>
	</g>
</g>
<g id="e-and-leaf">
	<g>
		<polyline fill="none" stroke="#5F9A42" stroke-width="0.999" stroke-miterlimit="10" points="301.299,28.674 302.878,33.007
			305.872,33.007 		"/>
		<polyline fill="none" stroke="#5F9A42" stroke-width="0.999" stroke-miterlimit="10" points="309.863,34.007 306.87,37.008
			308.866,41.008 		"/>
		<path fill="none" stroke="#5F9A42" stroke-width="0.999" stroke-miterlimit="10" d="M307.867,38.008c0,0,2.908-0.963,7.152-0.443
			c4.324,0.526,9.812,2.526,9.812,2.526"/>
		<path fill="none" stroke="#5F9A42" stroke-width="0.999" stroke-miterlimit="10" d="M310.861,18.007c0,0-2.494,4.333-3.991,7
			c-1.109,1.977-3.992,8-3.992,8"/>
		<path fill-rule="evenodd" clip-rule="evenodd" fill="#FFFFFF" d="M303.291,37.653c2.824-2.431,4.846-5.806,5.631-9.457
			c0.825-3.633,0.038-7.692-2.478-10.509c1.112,1.709,1.071,3.333,0.628,4.785c-0.508,1.791-1.524,3.403-2.409,4.883
			c-0.897,1.503-1.639,2.951-1.902,4.89C302.527,34.174,302.467,36.333,303.291,37.653"/>
		<path fill-rule="evenodd" clip-rule="evenodd" fill="#FFFFFF" d="M306.444,17.688c1.12,1.722,0.848,3.447,0.392,4.854
			c-0.522,1.751-1.538,3.318-2.416,4.76c-0.889,1.467-1.615,2.887-1.861,4.799c-0.207,1.866-0.086,4.151,0.692,5.492
			c-0.779-1.33-0.723-3.447-0.49-5.348c0.264-1.937,1.005-3.386,1.902-4.889c0.886-1.479,1.901-3.091,2.409-4.882
			C307.516,21.021,307.557,19.397,306.444,17.688"/>
		<path fill-rule="evenodd" clip-rule="evenodd" fill="#FFFFFF" d="M303.291,37.653c2.824-2.431,4.846-5.806,5.631-9.457
			c0.825-3.633,0.038-7.692-2.478-10.509c3.399,2.575,6.926,5.926,6.706,11.518c-0.077,3.026-1.416,6.042-3.766,7.764
			C307.006,38.745,304.348,38.755,303.291,37.653"/>
		<path fill-rule="evenodd" clip-rule="evenodd" fill="#5F9A42" d="M306.436,17.695c1.865,2.186,2.847,5.072,2.719,7.93
			c-0.357-0.751-0.69-1.541-0.924-2.354c0.217,0.923,0.518,1.846,0.907,2.737c-0.079,1.246-0.33,2.477-0.714,3.663
			c-0.456-1.221-0.636-2.586-0.672-3.904c-0.022,1.379,0.119,2.849,0.579,4.194c-0.329,0.941-0.74,1.854-1.223,2.727
			c-0.641-1.201-0.849-2.71-0.856-4.112c-0.051,1.431,0.107,3.021,0.739,4.327c-0.468,0.814-0.994,1.594-1.579,2.328
			c-0.777-1.264-0.896-2.937-0.828-4.457c-0.127,1.53-0.068,3.268,0.682,4.632c-0.623,0.753-1.314,1.465-2.066,2.094l0,0
			l0.224,0.279c0.89-0.763,1.684-1.641,2.387-2.562c1.491,0.454,3.445-0.363,4.846-2.03c-1.426,1.595-3.306,2.301-4.708,1.843
			c0.562-0.77,1.075-1.577,1.507-2.427c1.438-0.158,2.957-1.391,3.759-3.192c-0.84,1.727-2.292,2.84-3.646,2.97
			c0.456-0.902,0.825-1.848,1.112-2.815c1.169-0.812,2.003-2.469,2.03-4.223c-0.091,1.671-0.877,3.17-1.94,3.928
			c0.333-1.217,0.525-2.475,0.537-3.737c0.457-0.865,0.647-1.985,0.445-3.068c0.134,0.975-0.076,1.93-0.444,2.681
			c-0.033-2.729-1.058-5.427-2.854-7.464L306.436,17.695z"/>
		<path fill-rule="evenodd" clip-rule="evenodd" fill="#FFFFFF" d="M327.667,25.859c-1.364,2.81-3.602,3.528-5.915,4.065
			c-4.057,0.942-7.181,2.23-9.537,5.94c-1.438,2.262-2.31,4.506-4.445,5.295l0.039,0.235c3.008-0.131,5.938-1.109,8.569-2.605
			C321.402,35.985,325.764,31.369,327.667,25.859"/>
		<path fill-rule="evenodd" clip-rule="evenodd" fill="#FFFFFF" d="M327.667,25.859c-1.364,2.81-3.831,3.267-6.146,3.804
			c-4.059,0.941-7.182,2.229-9.537,5.939c-1.438,2.262-2.079,4.769-4.215,5.558c2.136-0.789,3.008-3.033,4.445-5.295
			c2.356-3.71,5.48-4.998,9.537-5.94C324.065,29.387,326.303,28.668,327.667,25.859"/>
		<path fill-rule="evenodd" clip-rule="evenodd" fill="#FFFFFF" d="M327.642,26.025c-0.462,2.507-0.942,5.33-1.921,7.879
			c-1.397,3.629-3.9,6.509-7.76,8.111c-2.337,0.972-4.335,0.896-6.752,0.179c-0.815-0.242-1.614-0.509-2.436-0.697
			c0.031-0.004-0.169-0.077-0.334-0.141c2.787-0.23,5.491-1.175,7.938-2.566c4.329-2.416,8.166-6.179,10.362-10.7
			C327.076,27.42,327.378,26.732,327.642,26.025"/>
		<path fill-rule="evenodd" clip-rule="evenodd" fill="#5F9A42" d="M313.48,40.006c0.568-2.418,2.006-4.562,3.716-6.361
			c-1.793,1.781-3.333,3.942-3.964,6.45c-1.763,0.619-3.611,0.984-5.463,1.065l1.005,0.336c1.627-0.181,3.233-0.574,4.764-1.154
			l0.058-0.014c1.777,0.458,3.701,0.378,5.383-0.334c-1.625,0.605-3.396,0.635-5.045,0.192c0.903-0.365,1.779-0.796,2.614-1.288
			c0.13-0.075,0.259-0.151,0.386-0.228l0.126,0.015c1.803,0.13,3.573-0.547,4.95-1.638c-1.378,0.996-3.076,1.571-4.754,1.428
			c1.115-0.691,2.186-1.466,3.191-2.315c1.196-0.069,2.356-0.469,3.34-1.115c-0.942,0.535-2.004,0.843-3.068,0.883
			c0.735-0.637,1.434-1.314,2.092-2.028c0.705-0.165,1.381-0.438,1.99-0.811c-0.559,0.265-1.15,0.447-1.752,0.547
			c0.516-0.574,1.003-1.171,1.461-1.79l0.002-0.001l0.002-0.004V31.84l0.002-0.002l0.001-0.001l0.001-0.002l0.002-0.001l0.001-0.002
			l0.001-0.001l0.001-0.002l0.001-0.002l0.002-0.001l0.001-0.003l0.001-0.002l0.001-0.001l0.002-0.002l0.001-0.001l0.002-0.002
			l0.001-0.001l0.001-0.003l0.002-0.002l0.001-0.001l0.004-0.005l0.001-0.002l0.034-0.045l0.001-0.002l0.001-0.002l0.002-0.001
			l0.001-0.002l0.001-0.002l0.001-0.001l0.002-0.002c0.067-0.094,0.136-0.188,0.204-0.283l0.766-0.299l-0.596,0.056
			c1.111-1.607,2.022-3.347,2.681-5.192l0.026-0.169c-0.7,1.923-1.675,3.726-2.864,5.375l-0.047,0.065v0.001
			c-0.066,0.091-0.133,0.182-0.201,0.271c-0.041-0.252-0.073-0.507-0.098-0.763c-0.04,0.33-0.068,0.663-0.081,0.999
			c-0.359,0.469-0.735,0.924-1.128,1.366c-0.062-0.505-0.09-1.014-0.088-1.529c-0.078,0.562-0.121,1.13-0.119,1.704l-0.003,0.06
			c-0.627,0.694-1.237,1.288-1.937,1.909c0.053-0.958,0.224-1.913,0.508-2.838c-0.377,0.973-0.629,1.998-0.742,3.044
			c-1.129,0.979-2.339,1.859-3.606,2.628c0.348-1.642,1.081-3.193,2.054-4.575c-1.059,1.375-1.888,2.955-2.305,4.665l-0.047,0.089
			c-0.183,0.108-0.368,0.214-0.555,0.318C315.474,39.18,314.492,39.635,313.48,40.006"/>
		<path fill-rule="evenodd" clip-rule="evenodd" fill="#FFFFFF" d="M307.77,41.16l1.08-0.588c-1.36,0.06-4.139,0.216-5.129-0.355
			c-0.887-0.513-0.077-1.727,0.189-2.201l-0.711-0.517l0,0c-0.729,1.135-2.175,2.25-3.314,2.51c-4.304,0.687-7.189,0.437-8.67,0.437
			c-1.174,0-2.076-0.825-2.607-1.497c-0.278-0.392-0.419-1.008-0.419-1.398c5.477,0.139,8.857-1.121,8.857-4.592
			c0-2.549-1.983-4.116-4.75-4.116c-4.946,0-7.963,4.339-7.963,8.511c0,3.556,2.012,5.768,5.923,5.768
			c1.509,0,15.582-1.273,18.734-1.624L307.77,41.16z M291.792,31.78c0.923,0,1.481,0.478,1.481,1.148v0.029
			c0,1.26-1.565,1.679-4.693,1.65C288.858,33.348,289.921,31.78,291.792,31.78"/>
	</g>
</g>
<g id="version">
	<g>
		<path fill="#FFFFFF" d="M339.363,28.798h-0.056l-3.556,1.568l-0.141-3.136l5.04-2.212h3.305l-3.444,18.2h-3.864L339.363,28.798z"
			/>
		<path fill="#FFFFFF" d="M345.188,39.131c0.728,0.392,2.184,1.008,3.976,1.008c2.269,0,3.612-1.121,3.612-2.576
			c0-1.652-1.344-2.436-3.725-2.436h-0.699l0.588-3.08h0.644c1.876,0,4.032-0.756,4.032-2.408c0-0.896-0.672-1.568-2.24-1.568
			c-1.54,0-2.912,0.42-3.752,0.896l-0.56-3.024c1.344-0.728,3.275-1.232,5.124-1.232c3.052,0,5.684,1.4,5.684,4.256
			c0,2.268-1.792,3.948-4.032,4.508l-0.027,0.056c1.876,0.392,3.164,1.904,3.164,4.004c0,3.808-3.893,5.992-7.868,5.992
			c-2.324,0-4.34-0.56-5.152-1.231L345.188,39.131z"/>
	</g>
</g>
<g id="tagline">
	<g>
		<path fill="#5A5A5A" d="M161.27,58.709h-2.047l0.221-1.122h5.401l-0.22,1.122h-2.068l-1.188,6.293h-1.287L161.27,58.709z"/>
		<path fill="#5A5A5A" d="M166.989,57.587l-0.572,3.003h3.015l0.571-3.003h1.288l-1.408,7.415h-1.288l0.628-3.278h-3.015
			l-0.627,3.278h-1.276l1.408-7.415H166.989z"/>
		<path fill="#5A5A5A" d="M175.998,61.701h-2.662l-0.418,2.212h2.992l-0.209,1.089h-4.279l1.408-7.415h4.114l-0.209,1.089h-2.827
			l-0.374,1.947h2.673L175.998,61.701z"/>
		<path fill="#5A5A5A" d="M182.29,57.708c0.451-0.11,1.122-0.176,1.782-0.176c0.693,0,1.419,0.143,1.903,0.527
			c0.429,0.33,0.683,0.814,0.683,1.475c0,0.88-0.419,1.595-0.946,2.014c-0.595,0.473-1.441,0.704-2.321,0.704
			c-0.265,0-0.495-0.033-0.693-0.056l-0.539,2.806h-1.254L182.29,57.708z M182.896,61.141c0.209,0.044,0.396,0.065,0.671,0.065
			c1.078,0,1.804-0.692,1.804-1.573c0-0.792-0.561-1.078-1.287-1.078c-0.318,0-0.561,0.022-0.715,0.066L182.896,61.141z"/>
		<path fill="#5A5A5A" d="M188.24,57.587h1.276l-1.188,6.293h2.904l-0.209,1.122h-4.192L188.24,57.587z"/>
		<path fill="#5A5A5A" d="M193.905,62.89l-1.012,2.112h-1.364l3.719-7.415h1.605l0.936,7.415h-1.342l-0.209-2.112H193.905z
			 M196.161,61.899l-0.209-1.849c-0.033-0.396-0.077-0.968-0.11-1.408h-0.022c-0.197,0.451-0.396,0.969-0.604,1.408l-0.902,1.849
			H196.161z"/>
		<path fill="#5A5A5A" d="M198.657,65.002l1.408-7.415h1.475l1.298,3.443c0.319,0.902,0.495,1.584,0.66,2.321h0.033
			c0.033-0.726,0.132-1.441,0.33-2.508l0.616-3.257h1.199l-1.408,7.415h-1.31l-1.331-3.51c-0.341-0.968-0.528-1.573-0.704-2.387
			l-0.033,0.011c-0.077,0.704-0.231,1.617-0.44,2.718l-0.594,3.168H198.657z"/>
		<path fill="#5A5A5A" d="M208.326,58.709h-2.046l0.22-1.122h5.402l-0.221,1.122h-2.068l-1.188,6.293h-1.287L208.326,58.709z"/>
		<path fill="#5A5A5A" d="M221.208,64.672c-0.506,0.188-1.354,0.407-2.256,0.407c-1.034,0-1.858-0.286-2.453-0.858
			c-0.583-0.572-0.847-1.386-0.847-2.244c0-1.31,0.539-2.553,1.485-3.378c0.813-0.692,1.925-1.089,3.168-1.089
			c0.946,0,1.606,0.198,1.87,0.33l-0.396,1.078c-0.353-0.165-0.902-0.308-1.573-0.308c-0.792,0-1.519,0.264-2.068,0.736
			c-0.66,0.572-1.089,1.529-1.089,2.542c0,1.331,0.726,2.102,2.112,2.102c0.396,0,0.726-0.066,0.957-0.165l0.352-1.859h-1.309
			l0.197-1.034h2.563L221.208,64.672z"/>
		<path fill="#5A5A5A" d="M227.114,61.701h-2.662l-0.418,2.212h2.992l-0.209,1.089h-4.279l1.408-7.415h4.114l-0.209,1.089h-2.827
			l-0.374,1.947h2.673L227.114,61.701z"/>
		<path fill="#5A5A5A" d="M227.994,65.002l1.408-7.415h1.474l1.299,3.443c0.318,0.902,0.495,1.584,0.66,2.321h0.032
			c0.033-0.726,0.132-1.441,0.33-2.508l0.616-3.257h1.199l-1.408,7.415h-1.31l-1.331-3.51c-0.341-0.968-0.527-1.573-0.704-2.387
			l-0.032,0.011c-0.077,0.704-0.231,1.617-0.44,2.718l-0.594,3.168H227.994z"/>
		<path fill="#5A5A5A" d="M242.328,60.535c0,1.32-0.474,2.685-1.343,3.531c-0.671,0.66-1.573,1.057-2.641,1.057
			c-1.925,0-2.926-1.408-2.926-3.059c0-1.32,0.506-2.706,1.396-3.564c0.66-0.649,1.596-1.034,2.597-1.034
			C241.393,57.466,242.328,58.841,242.328,60.535z M237.795,59.182c-0.649,0.649-1.012,1.859-1.012,2.816
			c0,1.123,0.495,2.047,1.749,2.047c0.539,0,1.045-0.231,1.441-0.627c0.627-0.639,0.99-1.903,0.99-2.839
			c0-0.979-0.342-2.035-1.706-2.035C238.687,58.544,238.191,58.786,237.795,59.182z"/>
		<path fill="#5A5A5A" d="M248.927,65.002l0.484-3.487c0.121-0.76,0.275-1.805,0.462-2.718h-0.033
			c-0.385,0.869-0.825,1.826-1.232,2.607l-1.814,3.51h-1.002l-0.385-3.455c-0.088-0.824-0.154-1.782-0.198-2.662h-0.021
			c-0.188,0.848-0.418,1.97-0.594,2.718l-0.858,3.487h-1.188l1.893-7.415h1.683l0.396,3.466c0.055,0.66,0.132,1.43,0.143,2.134
			h0.045c0.264-0.704,0.615-1.485,0.935-2.123l1.793-3.477h1.717l-0.979,7.415H248.927z"/>
		<path fill="#5A5A5A" d="M254.207,57.587l-1.408,7.415h-1.276l1.408-7.415H254.207z"/>
		<path fill="#5A5A5A" d="M259.729,64.782c-0.396,0.187-1.067,0.341-1.937,0.341c-1.925,0-3.157-1.188-3.157-3.113
			c0-1.552,0.66-2.86,1.738-3.652c0.771-0.584,1.694-0.881,2.762-0.881c0.813,0,1.408,0.198,1.617,0.33l-0.374,1.034
			c-0.242-0.132-0.748-0.264-1.397-0.264c-0.693,0-1.387,0.242-1.881,0.693c-0.66,0.571-1.079,1.507-1.079,2.574
			c0,1.254,0.639,2.178,2.102,2.178c0.539,0,1.101-0.099,1.485-0.274L259.729,64.782z"/>
		<path fill="#5A5A5A" d="M260.873,63.539c0.418,0.274,1.012,0.473,1.672,0.473c0.716,0,1.364-0.385,1.364-1.1
			c0-0.484-0.318-0.814-1.034-1.199c-0.857-0.463-1.507-1.046-1.507-1.937c0-1.419,1.232-2.3,2.729-2.3
			c0.825,0,1.364,0.198,1.65,0.374l-0.418,1.057c-0.242-0.132-0.737-0.341-1.332-0.33c-0.825,0-1.287,0.473-1.287,0.968
			c0,0.506,0.418,0.814,1.111,1.199c0.902,0.474,1.441,1.067,1.441,1.97c0,1.485-1.21,2.398-2.86,2.398
			c-0.902-0.012-1.64-0.265-1.97-0.518L260.873,63.539z"/>
		<path fill="#5A5A5A" d="M271.465,57.708c0.474-0.11,1.167-0.176,1.815-0.176c0.715,0,1.408,0.132,1.87,0.473
			c0.407,0.297,0.693,0.748,0.693,1.354c0,1.1-0.771,1.837-1.716,2.123v0.033c0.473,0.187,0.692,0.704,0.759,1.408
			c0.088,0.924,0.143,1.771,0.253,2.079h-1.32c-0.044-0.176-0.121-0.88-0.187-1.771c-0.066-0.946-0.407-1.287-1.078-1.287h-0.627
			l-0.584,3.059h-1.275L271.465,57.708z M272.114,60.976h0.727c0.989,0,1.672-0.627,1.672-1.431c0-0.692-0.539-1.001-1.266-1.001
			c-0.33,0-0.539,0.022-0.692,0.066L272.114,60.976z"/>
		<path fill="#5A5A5A" d="M280.75,61.701h-2.662l-0.419,2.212h2.993l-0.209,1.089h-4.28l1.408-7.415h4.115l-0.209,1.089h-2.828
			l-0.374,1.947h2.674L280.75,61.701z"/>
		<path fill="#5A5A5A" d="M281.86,63.539c0.418,0.274,1.012,0.473,1.672,0.473c0.716,0,1.364-0.385,1.364-1.1
			c0-0.484-0.318-0.814-1.034-1.199c-0.857-0.463-1.507-1.046-1.507-1.937c0-1.419,1.232-2.3,2.729-2.3
			c0.825,0,1.364,0.198,1.65,0.374l-0.418,1.057c-0.242-0.132-0.737-0.341-1.332-0.33c-0.825,0-1.287,0.473-1.287,0.968
			c0,0.506,0.418,0.814,1.111,1.199c0.902,0.474,1.441,1.067,1.441,1.97c0,1.485-1.21,2.398-2.86,2.398
			c-0.902-0.012-1.64-0.265-1.97-0.518L281.86,63.539z"/>
		<path fill="#5A5A5A" d="M294.138,60.535c0,1.32-0.474,2.685-1.343,3.531c-0.671,0.66-1.573,1.057-2.641,1.057
			c-1.925,0-2.926-1.408-2.926-3.059c0-1.32,0.506-2.706,1.396-3.564c0.66-0.649,1.596-1.034,2.597-1.034
			C293.202,57.466,294.138,58.841,294.138,60.535z M289.604,59.182c-0.649,0.649-1.012,1.859-1.012,2.816
			c0,1.123,0.495,2.047,1.749,2.047c0.539,0,1.045-0.231,1.441-0.627c0.627-0.639,0.99-1.903,0.99-2.839
			c0-0.979-0.342-2.035-1.706-2.035C290.496,58.544,290.001,58.786,289.604,59.182z"/>
		<path fill="#5A5A5A" d="M297.206,57.587l-0.825,4.323c-0.055,0.286-0.088,0.595-0.088,0.902c0,0.759,0.451,1.232,1.21,1.232
			c0.913,0,1.552-0.605,1.837-2.123l0.825-4.335h1.287l-0.824,4.312c-0.43,2.233-1.464,3.224-3.29,3.224
			c-1.386,0.011-2.321-0.727-2.321-2.277c0-0.319,0.044-0.693,0.099-1.034l0.804-4.225H297.206z"/>
		<path fill="#5A5A5A" d="M302.97,57.708c0.474-0.11,1.167-0.176,1.815-0.176c0.715,0,1.408,0.132,1.87,0.473
			c0.407,0.297,0.693,0.748,0.693,1.354c0,1.1-0.77,1.837-1.716,2.123v0.033c0.473,0.187,0.692,0.704,0.759,1.408
			c0.088,0.924,0.143,1.771,0.253,2.079h-1.32c-0.044-0.176-0.121-0.88-0.187-1.771c-0.066-0.946-0.407-1.287-1.078-1.287h-0.627
			l-0.584,3.059h-1.275L302.97,57.708z M303.619,60.976h0.727c0.989,0,1.672-0.627,1.672-1.431c0-0.692-0.539-1.001-1.266-1.001
			c-0.33,0-0.539,0.022-0.692,0.066L303.619,60.976z"/>
		<path fill="#5A5A5A" d="M313.047,64.782c-0.396,0.187-1.067,0.341-1.937,0.341c-1.925,0-3.157-1.188-3.157-3.113
			c0-1.552,0.66-2.86,1.738-3.652c0.771-0.584,1.694-0.881,2.762-0.881c0.813,0,1.408,0.198,1.617,0.33l-0.374,1.034
			c-0.242-0.132-0.748-0.264-1.397-0.264c-0.693,0-1.387,0.242-1.881,0.693c-0.66,0.571-1.079,1.507-1.079,2.574
			c0,1.254,0.639,2.178,2.102,2.178c0.539,0,1.101-0.099,1.485-0.274L313.047,64.782z"/>
		<path fill="#5A5A5A" d="M318.536,61.701h-2.662l-0.418,2.212h2.992l-0.209,1.089h-4.28l1.408-7.415h4.115l-0.209,1.089h-2.828
			l-0.374,1.947h2.674L318.536,61.701z"/>
	</g>
</g>
</svg>
